<svg width="265" height="65" viewBox="0 0 265 65" fill="none" xmlns="http://www.w3.org/2000/svg">
<path d="M79.3296 48V44.7188L94.2444 23.3267H79.2444V18.9091H100.779V22.1904L85.8779 43.5824H100.864V48H79.3296ZM115.395 48.4262C113.207 48.4262 111.318 47.9716 109.727 47.0625C108.146 46.144 106.929 44.8466 106.077 43.1705C105.225 41.4849 104.798 39.501 104.798 37.2188C104.798 34.9745 105.225 33.0048 106.077 31.3097C106.939 29.6052 108.141 28.2794 109.685 27.3324C111.228 26.376 113.042 25.8978 115.125 25.8978C116.47 25.8978 117.739 26.1156 118.932 26.5512C120.135 26.9773 121.195 27.6402 122.114 28.5398C123.042 29.4394 123.771 30.5853 124.301 31.9773C124.832 33.3599 125.097 35.0076 125.097 36.9205V38.4972H107.213V35.0313H120.168C120.158 34.0464 119.945 33.1705 119.529 32.4035C119.112 31.6269 118.529 31.0161 117.781 30.5711C117.043 30.126 116.181 29.9035 115.196 29.9035C114.145 29.9035 113.222 30.1591 112.426 30.6705C111.631 31.1724 111.011 31.8353 110.565 32.6591C110.13 33.4735 109.907 34.3684 109.898 35.3438V38.3694C109.898 39.6383 110.13 40.7273 110.594 41.6364C111.058 42.536 111.707 43.2273 112.54 43.7103C113.373 44.1838 114.349 44.4205 115.466 44.4205C116.214 44.4205 116.891 44.3163 117.497 44.108C118.103 43.8902 118.629 43.573 119.074 43.1563C119.519 42.7396 119.855 42.2235 120.082 41.608L124.884 42.1478C124.581 43.4167 124.003 44.5247 123.151 45.4716C122.308 46.4091 121.228 47.1383 119.912 47.6591C118.596 48.1705 117.09 48.4262 115.395 48.4262ZM134.589 35.216V48H129.447V26.1819H134.362V29.8892H134.617C135.119 28.6677 135.919 27.697 137.018 26.9773C138.126 26.2576 139.494 25.8978 141.123 25.8978C142.629 25.8978 143.94 26.2197 145.058 26.8637C146.185 27.5076 147.056 28.4404 147.671 29.662C148.296 30.8836 148.604 32.3656 148.595 34.108V48H143.453V34.9035C143.453 33.4451 143.074 32.304 142.316 31.4802C141.568 30.6563 140.531 30.2444 139.205 30.2444C138.306 30.2444 137.506 30.4432 136.805 30.841C136.113 31.2292 135.569 31.7927 135.171 32.5313C134.783 33.2699 134.589 34.1648 134.589 35.216Z" fill="black"/>
<path d="M167.707 48H162.082L172.323 18.9091H178.829L189.085 48H183.46L175.69 24.875H175.462L167.707 48ZM167.891 36.5938H183.232V40.8267H167.891V36.5938ZM192.689 56.1819V26.1819H197.746V29.7898H198.044C198.309 29.2595 198.683 28.6961 199.166 28.0995C199.649 27.4934 200.303 26.9773 201.127 26.5512C201.95 26.1156 203.002 25.8978 204.28 25.8978C205.966 25.8978 207.485 26.3286 208.84 27.1904C210.203 28.0427 211.283 29.3069 212.078 30.983C212.883 32.6497 213.286 34.6951 213.286 37.1194C213.286 39.5152 212.893 41.5512 212.107 43.2273C211.321 44.9035 210.251 46.1819 208.896 47.0625C207.542 47.9432 206.008 48.3836 204.294 48.3836C203.044 48.3836 202.007 48.1752 201.183 47.7586C200.359 47.3419 199.697 46.84 199.195 46.2529C198.702 45.6563 198.319 45.0928 198.044 44.5625H197.831V56.1819H192.689ZM197.732 37.091C197.732 38.5019 197.93 39.7377 198.328 40.7983C198.735 41.8589 199.318 42.6875 200.075 43.2841C200.842 43.8713 201.77 44.1648 202.859 44.1648C203.996 44.1648 204.948 43.8618 205.715 43.2557C206.482 42.6402 207.059 41.8021 207.448 40.7415C207.845 39.6714 208.044 38.4546 208.044 37.091C208.044 35.7368 207.85 34.5341 207.462 33.483C207.073 32.4319 206.496 31.608 205.729 31.0114C204.962 30.4148 204.005 30.1165 202.859 30.1165C201.761 30.1165 200.828 30.4053 200.061 30.983C199.294 31.5606 198.712 32.3703 198.314 33.412C197.926 34.4536 197.732 35.68 197.732 37.091ZM217.689 56.1819V26.1819H222.746V29.7898H223.044C223.309 29.2595 223.683 28.6961 224.166 28.0995C224.649 27.4934 225.303 26.9773 226.127 26.5512C226.95 26.1156 228.002 25.8978 229.28 25.8978C230.966 25.8978 232.485 26.3286 233.84 27.1904C235.203 28.0427 236.283 29.3069 237.078 30.983C237.883 32.6497 238.286 34.6951 238.286 37.1194C238.286 39.5152 237.893 41.5512 237.107 43.2273C236.321 44.9035 235.251 46.1819 233.896 47.0625C232.542 47.9432 231.008 48.3836 229.294 48.3836C228.044 48.3836 227.007 48.1752 226.183 47.7586C225.359 47.3419 224.697 46.84 224.195 46.2529C223.702 45.6563 223.319 45.0928 223.044 44.5625H222.831V56.1819H217.689ZM222.732 37.091C222.732 38.5019 222.93 39.7377 223.328 40.7983C223.735 41.8589 224.318 42.6875 225.075 43.2841C225.842 43.8713 226.77 44.1648 227.859 44.1648C228.996 44.1648 229.948 43.8618 230.715 43.2557C231.482 42.6402 232.059 41.8021 232.448 40.7415C232.845 39.6714 233.044 38.4546 233.044 37.091C233.044 35.7368 232.85 34.5341 232.462 33.483C232.073 32.4319 231.496 31.608 230.729 31.0114C229.962 30.4148 229.005 30.1165 227.859 30.1165C226.761 30.1165 225.828 30.4053 225.061 30.983C224.294 31.5606 223.712 32.3703 223.314 33.412C222.926 34.4536 222.732 35.68 222.732 37.091ZM259.933 31.9489L255.246 32.4603C255.113 31.9868 254.881 31.5417 254.55 31.125C254.228 30.7084 253.792 30.3722 253.243 30.1165C252.694 29.8608 252.021 29.733 251.226 29.733C250.156 29.733 249.256 29.965 248.527 30.429C247.807 30.893 247.452 31.4944 247.462 32.233C247.452 32.8675 247.684 33.3836 248.158 33.7813C248.641 34.179 249.436 34.5057 250.544 34.7614L254.266 35.5569C256.33 36.0019 257.864 36.7074 258.868 37.6733C259.881 38.6392 260.393 39.9035 260.402 41.466C260.393 42.8391 259.99 44.0512 259.195 45.1023C258.409 46.144 257.315 46.9584 255.913 47.5455C254.512 48.1326 252.902 48.4262 251.084 48.4262C248.413 48.4262 246.264 47.8675 244.635 46.75C243.006 45.6231 242.036 44.0559 241.723 42.0483L246.737 41.5654C246.965 42.5502 247.448 43.2936 248.186 43.7955C248.925 44.2974 249.886 44.5483 251.07 44.5483C252.291 44.5483 253.271 44.2974 254.01 43.7955C254.758 43.2936 255.132 42.6733 255.132 41.9347C255.132 41.3097 254.891 40.7936 254.408 40.3864C253.934 39.9792 253.196 39.6667 252.192 39.4489L248.47 38.6677C246.377 38.2321 244.829 37.4981 243.825 36.466C242.822 35.4243 242.324 34.108 242.334 32.5171C242.324 31.1724 242.689 30.0076 243.428 29.0228C244.176 28.0285 245.213 27.2614 246.538 26.7216C247.874 26.1724 249.412 25.8978 251.155 25.8978C253.712 25.8978 255.724 26.4423 257.192 27.5313C258.669 28.6203 259.583 30.0928 259.933 31.9489Z" fill="#808080"/>
<path d="M45.9639 62.08C38.714 65.3799 30.5048 65.9024 22.8951 63.5483C15.2853 61.1942 8.80517 56.1274 4.68514 49.3101C0.565106 42.4929 -0.907842 34.3999 0.546011 26.5682C1.99986 18.7365 6.27927 11.7114 12.5715 6.82705C18.8638 1.9427 26.7307 -0.460754 34.6784 0.0731222C42.626 0.606999 50.1008 4.04102 55.6832 9.72305C61.2657 15.4051 64.5671 22.9394 64.9604 30.8952C65.3538 38.851 62.8117 46.6742 57.8169 52.8792L54.7254 50.3906C59.1102 44.9434 61.3419 38.0755 60.9966 31.0912C60.6513 24.1069 57.7531 17.4926 52.8523 12.5044C47.9515 7.51625 41.3895 4.50157 34.4124 4.03289C27.4353 3.5642 20.529 5.67416 15.0051 9.96206C9.48118 14.25 5.72435 20.4172 4.44803 27.2926C3.17172 34.1679 4.4648 41.2726 8.08172 47.2574C11.6986 53.2421 17.3875 57.6902 24.068 59.7569C30.7484 61.8235 37.9552 61.3649 44.3198 58.4679L45.9639 62.08Z" fill="black"/>
<circle cx="52.0001" cy="57.5715" r="3.71429" fill="black"/>
</svg>
