<svg width="270" height="80" viewBox="0 0 270 80" fill="none" xmlns="http://www.w3.org/2000/svg">
<g clip-path="url(#clip0_1_2)">
<rect width="270" height="80" fill="white"/>
<path d="M84.3295 56V52.7188L99.2443 31.3267H84.2443V26.9091H105.778V30.1903L90.8778 51.5824H105.864V56H84.3295ZM120.395 56.4261C118.207 56.4261 116.318 55.9716 114.727 55.0625C113.146 54.1439 111.929 52.8466 111.077 51.1705C110.224 49.4848 109.798 47.5009 109.798 45.2188C109.798 42.9744 110.224 41.0047 111.077 39.3097C111.938 37.6051 113.141 36.2794 114.685 35.3324C116.228 34.3759 118.042 33.8977 120.125 33.8977C121.47 33.8977 122.739 34.1155 123.932 34.5511C125.134 34.9773 126.195 35.6402 127.114 36.5398C128.042 37.4394 128.771 38.5852 129.301 39.9773C129.831 41.3598 130.097 43.0076 130.097 44.9205V46.4972H112.213V43.0312H125.168C125.158 42.0464 124.945 41.1705 124.528 40.4034C124.112 39.6269 123.529 39.0161 122.781 38.571C122.043 38.1259 121.181 37.9034 120.196 37.9034C119.145 37.9034 118.222 38.1591 117.426 38.6705C116.631 39.1723 116.01 39.8352 115.565 40.6591C115.13 41.4735 114.907 42.3684 114.898 43.3438V46.3693C114.898 47.6383 115.13 48.7273 115.594 49.6364C116.058 50.536 116.706 51.2273 117.54 51.7102C118.373 52.1837 119.348 52.4205 120.466 52.4205C121.214 52.4205 121.891 52.3163 122.497 52.108C123.103 51.8902 123.629 51.5729 124.074 51.1562C124.519 50.7396 124.855 50.2235 125.082 49.608L129.884 50.1477C129.58 51.4167 129.003 52.5246 128.151 53.4716C127.308 54.4091 126.228 55.1383 124.912 55.6591C123.596 56.1705 122.09 56.4261 120.395 56.4261ZM139.589 43.2159V56H134.447V34.1818H139.362V37.8892H139.617C140.119 36.6676 140.919 35.697 142.018 34.9773C143.126 34.2576 144.494 33.8977 146.123 33.8977C147.629 33.8977 148.94 34.2197 150.058 34.8636C151.184 35.5076 152.056 36.4403 152.671 37.6619C153.296 38.8835 153.604 40.3655 153.594 42.108V56H148.452V42.9034C148.452 41.4451 148.074 40.304 147.316 39.4801C146.568 38.6562 145.531 38.2443 144.205 38.2443C143.306 38.2443 142.505 38.4432 141.805 38.8409C141.113 39.2292 140.569 39.7926 140.171 40.5312C139.783 41.2699 139.589 42.1648 139.589 43.2159Z" fill="black"/>
<path d="M172.707 56H167.082L177.323 26.9091H183.829L194.085 56H188.46L180.69 32.875H180.462L172.707 56ZM172.891 44.5938H188.232V48.8267H172.891V44.5938ZM197.689 64.1818V34.1818H202.746V37.7898H203.044C203.309 37.2595 203.683 36.696 204.166 36.0994C204.649 35.4934 205.303 34.9773 206.126 34.5511C206.95 34.1155 208.001 33.8977 209.28 33.8977C210.965 33.8977 212.485 34.3286 213.839 35.1903C215.203 36.0426 216.283 37.3068 217.078 38.983C217.883 40.6496 218.286 42.6951 218.286 45.1193C218.286 47.5152 217.893 49.5511 217.107 51.2273C216.321 52.9034 215.25 54.1818 213.896 55.0625C212.542 55.9432 211.008 56.3835 209.294 56.3835C208.044 56.3835 207.007 56.1752 206.183 55.7585C205.359 55.3419 204.696 54.84 204.195 54.2528C203.702 53.6562 203.319 53.0928 203.044 52.5625H202.831V64.1818H197.689ZM202.732 45.0909C202.732 46.5019 202.93 47.7377 203.328 48.7983C203.735 49.8589 204.318 50.6875 205.075 51.2841C205.842 51.8712 206.77 52.1648 207.859 52.1648C208.996 52.1648 209.947 51.8617 210.714 51.2557C211.482 50.6402 212.059 49.8021 212.447 48.7415C212.845 47.6714 213.044 46.4545 213.044 45.0909C213.044 43.7367 212.85 42.5341 212.462 41.483C212.073 40.4318 211.496 39.608 210.729 39.0114C209.962 38.4148 209.005 38.1165 207.859 38.1165C206.761 38.1165 205.828 38.4053 205.061 38.983C204.294 39.5606 203.712 40.3703 203.314 41.4119C202.926 42.4536 202.732 43.6799 202.732 45.0909ZM222.689 64.1818V34.1818H227.746V37.7898H228.044C228.309 37.2595 228.683 36.696 229.166 36.0994C229.649 35.4934 230.303 34.9773 231.126 34.5511C231.95 34.1155 233.001 33.8977 234.28 33.8977C235.965 33.8977 237.485 34.3286 238.839 35.1903C240.203 36.0426 241.283 37.3068 242.078 38.983C242.883 40.6496 243.286 42.6951 243.286 45.1193C243.286 47.5152 242.893 49.5511 242.107 51.2273C241.321 52.9034 240.25 54.1818 238.896 55.0625C237.542 55.9432 236.008 56.3835 234.294 56.3835C233.044 56.3835 232.007 56.1752 231.183 55.7585C230.359 55.3419 229.696 54.84 229.195 54.2528C228.702 53.6562 228.319 53.0928 228.044 52.5625H227.831V64.1818H222.689ZM227.732 45.0909C227.732 46.5019 227.93 47.7377 228.328 48.7983C228.735 49.8589 229.318 50.6875 230.075 51.2841C230.842 51.8712 231.77 52.1648 232.859 52.1648C233.996 52.1648 234.947 51.8617 235.714 51.2557C236.482 50.6402 237.059 49.8021 237.447 48.7415C237.845 47.6714 238.044 46.4545 238.044 45.0909C238.044 43.7367 237.85 42.5341 237.462 41.483C237.073 40.4318 236.496 39.608 235.729 39.0114C234.962 38.4148 234.005 38.1165 232.859 38.1165C231.761 38.1165 230.828 38.4053 230.061 38.983C229.294 39.5606 228.712 40.3703 228.314 41.4119C227.926 42.4536 227.732 43.6799 227.732 45.0909ZM264.933 39.9489L260.246 40.4602C260.113 39.9867 259.881 39.5417 259.55 39.125C259.228 38.7083 258.792 38.3722 258.243 38.1165C257.694 37.8608 257.021 37.733 256.226 37.733C255.156 37.733 254.256 37.965 253.527 38.429C252.807 38.893 252.452 39.4943 252.462 40.233C252.452 40.8674 252.684 41.3835 253.158 41.7812C253.641 42.179 254.436 42.5057 255.544 42.7614L259.266 43.5568C261.33 44.0019 262.864 44.7074 263.868 45.6733C264.881 46.6392 265.393 47.9034 265.402 49.4659C265.393 50.839 264.99 52.0511 264.195 53.1023C263.409 54.1439 262.315 54.9583 260.913 55.5455C259.512 56.1326 257.902 56.4261 256.084 56.4261C253.413 56.4261 251.264 55.8674 249.635 54.75C248.006 53.6231 247.036 52.0559 246.723 50.0483L251.737 49.5653C251.964 50.5502 252.447 51.2936 253.186 51.7955C253.925 52.2973 254.886 52.5483 256.07 52.5483C257.291 52.5483 258.271 52.2973 259.01 51.7955C259.758 51.2936 260.132 50.6733 260.132 49.9347C260.132 49.3097 259.891 48.7936 259.408 48.3864C258.934 47.9792 258.196 47.6667 257.192 47.4489L253.47 46.6676C251.377 46.232 249.829 45.4981 248.825 44.4659C247.821 43.4242 247.324 42.108 247.334 40.517C247.324 39.1723 247.689 38.0076 248.428 37.0227C249.176 36.0284 250.213 35.2614 251.538 34.7216C252.874 34.1723 254.412 33.8977 256.155 33.8977C258.712 33.8977 260.724 34.4422 262.192 35.5312C263.669 36.6203 264.583 38.0928 264.933 39.9489Z" fill="#808080"/>
<path d="M50.9638 70.08C43.7139 73.3799 35.5047 73.9024 27.895 71.5482C20.2853 69.1941 13.8051 64.1273 9.68504 57.3101C5.56501 50.4928 4.09207 42.3999 5.54592 34.5682C6.99977 26.7364 11.2792 19.7114 17.5714 14.827C23.8637 9.94265 31.7306 7.5392 39.6783 8.07308C47.6259 8.60696 55.1007 12.041 60.6832 17.723C66.2656 23.405 69.567 30.9394 69.9604 38.8952C70.3537 46.851 67.8116 54.6742 62.8168 60.8792L59.7253 58.3906C64.1101 52.9433 66.3418 46.0754 65.9965 39.0911C65.6512 32.1068 62.753 25.4926 57.8522 20.5044C52.9514 15.5162 46.3894 12.5015 39.4123 12.0328C32.4352 11.5642 25.5289 13.6741 20.005 17.962C14.4811 22.2499 10.7243 28.4172 9.44794 35.2925C8.17162 42.1679 9.46471 49.2726 13.0816 55.2573C16.6985 61.2421 22.3874 65.6902 29.0679 67.7568C35.7483 69.8235 42.9551 69.3648 49.3197 66.4679L50.9638 70.08Z" fill="black"/>
<circle cx="57" cy="65.5714" r="3.71429" fill="black"/>
</g>
<defs>
<clipPath id="clip0_1_2">
<rect width="270" height="80" fill="white"/>
</clipPath>
</defs>
</svg>
